<?xml version="1.0" encoding="iso-8859-1"?>
<!-- Generator: Adobe Illustrator 18.1.1, SVG Export Plug-In . SVG Version: 6.00 Build 0)  -->
<svg version="1.1" id="Capa_1" xmlns="http://www.w3.org/2000/svg" xmlns:xlink="http://www.w3.org/1999/xlink" x="0px" y="0px"
	 viewBox="0 0 427 427" style="enable-background:new 0 0 427 427;" xml:space="preserve">
<g>
	<g>
		<path d="M426.077,196.87c-0.199-1.795-0.091-3.39-1.421-4.52L413,181.781v-30.968h5.167c3.656,0,8.833,0.126,8.833-3.597V81.012
			c0-3.722-5.177-9.199-8.833-9.199H280.242c33.302-20,52.245-40.401,44.136-56.819c-3.922-8.042-13.493-11.825-26.854-11.825
			c-13.826,0-31.307,5.022-47.925,13.198c-15.288,7.578-28.516,17.434-37.157,27.603c-1.861,2.127-3.39,4.33-4.719,6.39
			c-7.644-11.898-22.4-24.091-41.876-33.729c-16.618-8.176-34.099-12.876-47.925-12.876c-13.36,0-22.866,4.464-26.854,12.44
			c-4.321,8.774-1.196,18.736,8.708,30.368c8.375,9.772,20.872,19.251,35.429,25.251H7.316C3.66,71.813,0,77.29,0,81.012v66.204
			c0,3.722,3.66,3.597,7.316,3.597H15v269.795c0,3.656,1.422,3.205,5.144,3.205h384.33c3.656,0,8.526,0.451,8.526-3.205V217.741
			l12.454-16.019C426.584,200.393,426.21,198.598,426.077,196.87z M222.546,52.763c7.511-8.841,19.21-17.415,32.969-24.129
			c14.823-7.312,30.177-11.566,42.009-11.566c7.777,0,13.36,1.928,14.956,5.052c3.456,7.046-10.303,26.655-39.882,41.211
			c-9.306,4.586-20.34,6.913-32.77,6.913c-10.768,0-19.941-1.795-24.727-2.925C215.101,63.597,217.76,58.346,222.546,52.763z
			 M109.879,39.203c-5.982-7.046-8.641-13.56-6.846-17.083c1.529-3.124,7.112-5.052,14.889-5.052
			c11.832,0,27.186,4.254,42.009,11.566c26.588,13.095,40.414,30.244,40.414,38.686c-4.719,1.13-13.892,2.925-24.66,2.925
			c-12.43,0-23.53-2.326-32.836-6.913C129.089,56.551,117.39,47.977,109.879,39.203z M15,138.813v-54h145v54H15z M167,411.813H27
			v-261h140V411.813z M233,411.813h-53v-261h53V411.813z M240,138.813h-67v-54h38.778L240,110.06V138.813z M240,101.485
			l-17.521-16.672H240V101.485z M400,411.813H246v-261h0.741l3.324,22.928c0.266,1.529,1.064,3.787,2.326,4.785l106.618,89.866
			l0.332,0.465c0.066,0.066,0.199,0.232,0.266,0.299c0.864,0.665,1.861,1.18,2.858,1.379c0.332,0,0.731,0.092,1.13,0.092
			c0.931,0,2.127-0.187,3.191-0.586c0.266-0.133,0.532-0.26,0.798-0.392c0.798-0.332,1.718-0.795,2.183-1.392L400,233.561V411.813z
			 M399.489,210.895l-36.691,43.737l-3.191-2.659l-0.598-0.532l-96.182-80.695l-7.578-48.523l18.678,14.889
			c-2.127,3.722-3.124,8.043-2.725,12.43c0.465,5.716,3.191,10.901,7.578,14.557c3.855,3.257,8.708,4.985,13.759,4.985
			c6.381,0,12.363-2.792,16.418-7.644c7.644-9.04,6.448-22.6-2.592-30.177c-8.043-6.713-20.539-6.182-28.25,0.665l-20.672-16.485
			l52.644-1.064l48.922,41.079l0.598,0.532l39.882,33.434l10.569,8.841L399.489,210.895z M294.599,145.09l-5.783-4.653
			c1.13-0.598,2.393-0.931,3.722-0.931c1.396,0,3.39,0.332,5.251,1.928c3.456,2.858,3.922,8.043,0.997,11.499
			c-1.529,1.861-3.855,2.858-6.248,2.858c-1.329,0-3.324-0.332-5.251-1.861c-1.662-1.396-2.659-3.39-2.858-5.517
			c-0.066-0.931,0.066-1.861,0.266-2.725l5.783,4.586c0.598,0.465,1.329,0.731,2.061,0.731c0.997,0,1.928-0.465,2.592-1.263
			C296.328,148.28,296.062,146.22,294.599,145.09z M377.886,150.813H400v19.801L377.886,150.813z M362,138.813l-45.266-37.077
			c-1.196-1.064-2.353-1.056-4.015-1.122L254,102.283V84.813h159v54H362z"/>
		<path d="M369.711,180.851c-0.731-6.647-4.653-12.297-10.103-15.421c-3.523-2.061-7.644-3.058-12.031-2.725
			c-8.375,0.731-13.693,7.843-14.557,18.878c-10.768,2.792-16.817,9.306-16.086,17.681c0.931,10.635,9.705,18.678,20.34,18.678
			c0.465,0,0.864,0,1.462-0.066l20.872-1.662l6.581-0.532c1.795-0.199,3.39-0.997,4.52-2.393c1.196-1.329,1.728-3.124,1.595-4.852
			L369.711,180.851z M337.738,204.813h-0.465c-3.656,0-6.78-2.941-7.112-6.597c-0.066-1.329,3.722-3.631,10.236-4.429
			c3.456-0.465,5.982-3.478,5.783-7.001c-0.332-6.513,1.263-10.712,3.191-10.845c3.656,0,6.714,2.72,7.112,6.243l1.928,20.819
			L337.738,204.813z"/>
	</g>
	<path d="M366.384,215.681L360,216.213v-50.783c7,3.124,9.176,8.774,9.907,15.421l2.494,27.585c0.133,1.728-0.35,3.523-1.546,4.852
		C369.725,214.684,368.179,215.481,366.384,215.681z"/>
	<polygon points="400,170.614 400,189.425 360,155.991 360,150.813 377.886,150.813 	"/>
	<path d="M363.25,254.632L400,210.895v22.666l-30.234,34.697c-0.465,0.598-1.258,1.064-2.055,1.396
		c-0.267,0.133-0.596,0.266-0.862,0.399c-1.064,0.399-2.292,0.598-3.223,0.598c-0.399,0-0.813-0.066-1.145-0.066
		c-0.598-0.133-1.072-0.399-1.604-0.665c-0.399-0.266-0.605-0.532-1.004-0.864L360,268.79v-16.817L363.25,254.632z"/>
</g>
<g>
</g>
<g>
</g>
<g>
</g>
<g>
</g>
<g>
</g>
<g>
</g>
<g>
</g>
<g>
</g>
<g>
</g>
<g>
</g>
<g>
</g>
<g>
</g>
<g>
</g>
<g>
</g>
<g>
</g>
</svg>
